<?xml version="1.0" encoding="iso-8859-1"?>
<!-- Generator: Adobe Illustrator 18.0.0, SVG Export Plug-In . SVG Version: 6.00 Build 0)  -->
<!DOCTYPE svg PUBLIC "-//W3C//DTD SVG 1.1//EN" "http://www.w3.org/Graphics/SVG/1.1/DTD/svg11.dtd">
<svg version="1.1" id="Capa_1" xmlns="http://www.w3.org/2000/svg" xmlns:xlink="http://www.w3.org/1999/xlink" x="0px" y="0px"
	 viewBox="0 0 292.888 292.888" style="enable-background:new 0 0 292.888 292.888;" xml:space="preserve">
<g>
	<path d="M167.364,292.888h59.642c12.061,0,21.838-9.777,21.838-21.839V149.747h-81.48V292.888z"/>
	<path d="M44.043,271.049c0,12.062,9.777,21.839,21.838,21.839h59.642V149.747h-81.48V271.049z"/>
	<path d="M265.119,69.13h-39.996c0.058-0.017,0.124-0.032,0.181-0.049c18.688-5.426,29.439-24.976,24.013-43.663
		C244.842,10.013,230.768,0,215.494,0c-3.254,0-6.559,0.454-9.84,1.406c-12.983,3.769-43.566,20.58-59.211,36.759
		C130.799,21.986,100.216,5.176,87.232,1.406C83.951,0.454,80.647,0,77.393,0C62.119,0.002,48.045,10.013,43.57,25.418
		c-5.427,18.688,5.325,38.237,24.013,43.663c0.057,0.017,0.123,0.032,0.181,0.049H27.769c-6.519,0-11.803,5.284-11.803,11.803
		v29.484c0,6.519,5.284,11.803,11.803,11.803h97.754V69.131h41.842v53.089h97.755c6.519,0,11.803-5.284,11.803-11.803V80.933
		C276.922,74.414,271.638,69.13,265.119,69.13z M179.687,37.083c13.604-8.993,26.636-15.045,31.543-16.47
		c1.402-0.406,2.837-0.613,4.265-0.613c6.725,0,12.735,4.522,14.615,10.996c1.135,3.907,0.68,8.023-1.281,11.589
		c-1.961,3.566-5.193,6.154-9.102,7.29c-4.18,1.214-16.124,3.02-31.895,3.02c-11.77,0-20.144-1.025-25.679-2.177
		C165.765,47.219,171.359,42.587,179.687,37.083z M64.059,42.585c-1.961-3.565-2.416-7.682-1.281-11.589
		c1.88-6.474,7.891-10.995,14.617-10.996h0.001c1.426,0,2.859,0.207,4.26,0.613c4.909,1.425,17.941,7.477,31.545,16.47
		c8.327,5.504,13.922,10.136,17.533,13.635c-5.535,1.151-13.909,2.177-25.679,2.177c-15.771,0-27.714-1.806-31.896-3.021
		C69.252,48.739,66.02,46.151,64.059,42.585z"/>
</g>

</svg>
